<?xml version="1.0" encoding="utf-8"?><svg viewBox="0 0 512 512" xmlns="http://www.w3.org/2000/svg" xmlns:xlink="http://www.w3.org/1999/xlink"><style>:root>svg{display:none}:root>svg:target{display:block}</style><svg viewBox="0 0 24 24" id="cursor" xmlns="http://www.w3.org/2000/svg"><path d="M12 22C6.5 22 2 17.5 2 12S6.5 2 12 2s10 4.5 10 10-4.5 10-10 10zm0-19c-5 0-9 4-9 9s4 9 9 9 9-4 9-9-4-9-9-9z"/><path d="M12 5c-.3 0-.5-.2-.5-.5v-4c0-.3.2-.5.5-.5s.5.2.5.5v4c0 .3-.2.5-.5.5z"/><path d="M12 5c-.3 0-.5-.2-.5-.5v-4c0-.3.2-.5.5-.5s.5.2.5.5v4c0 .3-.2.5-.5.5zM23.5 12.5h-4c-.3 0-.5-.2-.5-.5s.2-.5.5-.5h4c.3 0 .5.2.5.5s-.2.5-.5.5zM12 24c-.3 0-.5-.2-.5-.5v-4c0-.3.2-.5.5-.5s.5.2.5.5v4c0 .3-.2.5-.5.5zM4.5 12.5h-4c-.3 0-.5-.2-.5-.5s.2-.5.5-.5h4c.3 0 .5.2.5.5s-.2.5-.5.5zM12 15c-1.7 0-3-1.3-3-3s1.3-3 3-3 3 1.3 3 3-1.3 3-3 3zm0-5c-1.1 0-2 .9-2 2s.9 2 2 2 2-.9 2-2-.9-2-2-2z"/></svg><svg fill="none" viewBox="0 0 48 48" id="facebook" xmlns="http://www.w3.org/2000/svg"><path fill-rule="evenodd" clip-rule="evenodd" d="M24 0C10.745 0 0 10.745 0 24s10.745 24 24 24 24-10.745 24-24S37.255 0 24 0zm2.502 25.054v13.058h-5.403V25.054H18.4v-4.5h2.7v-2.701c0-3.671 1.523-5.854 5.853-5.854h3.605v4.5h-2.253c-1.686 0-1.797.629-1.797 1.802l-.006 2.253h4.082l-.478 4.5h-3.604z" fill="#000"/></svg><svg viewBox="0 0 20 20" id="github" xmlns="http://www.w3.org/2000/svg"><path d="M10 0c5.523 0 10 4.59 10 10.253 0 4.529-2.862 8.371-6.833 9.728-.507.101-.687-.219-.687-.492 0-.338.012-1.442.012-2.814 0-.956-.32-1.58-.679-1.898 2.227-.254 4.567-1.121 4.567-5.059 0-1.12-.388-2.034-1.03-2.752.104-.259.447-1.302-.098-2.714 0 0-.838-.275-2.747 1.051A9.396 9.396 0 0010 4.958a9.375 9.375 0 00-2.503.345C5.586 3.977 4.746 4.252 4.746 4.252c-.543 1.412-.2 2.455-.097 2.714-.639.718-1.03 1.632-1.03 2.752 0 3.928 2.335 4.808 4.556 5.067-.286.256-.545.708-.635 1.371-.57.262-2.018.715-2.91-.852 0 0-.529-.985-1.533-1.057 0 0-.975-.013-.068.623 0 0 .655.315 1.11 1.5 0 0 .587 1.83 3.369 1.21.005.857.014 1.665.014 1.909 0 .271-.184.588-.683.493C2.865 18.627 0 14.783 0 10.253 0 4.59 4.478 0 10 0" fill="#000" fill-rule="evenodd"/></svg><svg fill="none" viewBox="0 0 48 48" id="instagram" xmlns="http://www.w3.org/2000/svg"><path fill-rule="evenodd" clip-rule="evenodd" d="M24 0C10.745 0 0 10.745 0 24s10.745 24 24 24 24-10.745 24-24S37.255 0 24 0zm-5.277 11.277c1.366-.062 1.802-.077 5.278-.077h-.004c3.478 0 3.912.015 5.278.077 1.362.063 2.293.279 3.109.595a6.256 6.256 0 012.267 1.476 6.281 6.281 0 011.477 2.268c.315.813.53 1.744.595 3.106.061 1.366.077 1.802.077 5.278 0 3.476-.016 3.912-.077 5.277-.064 1.362-.28 2.293-.595 3.107a6.283 6.283 0 01-1.477 2.267 6.263 6.263 0 01-2.266 1.477c-.815.317-1.746.532-3.108.595-1.366.062-1.8.077-5.277.077-3.476 0-3.912-.015-5.278-.077-1.362-.063-2.293-.278-3.107-.595a6.268 6.268 0 01-2.267-1.477 6.271 6.271 0 01-1.476-2.268c-.316-.814-.532-1.744-.595-3.106-.061-1.366-.077-1.8-.077-5.277 0-3.476.016-3.913.077-5.278.061-1.362.277-2.293.595-3.107a6.284 6.284 0 011.477-2.267 6.268 6.268 0 012.268-1.476c.813-.316 1.744-.532 3.106-.595z" fill="#000"/><path fill-rule="evenodd" clip-rule="evenodd" d="M22.853 13.507h1.148c3.418 0 3.823.012 5.173.073 1.248.057 1.925.266 2.376.441.598.232 1.023.51 1.471.957.448.449.725.875.958 1.473.175.45.384 1.127.44 2.375.062 1.35.075 1.755.075 5.171 0 3.416-.013 3.822-.074 5.171-.057 1.248-.266 1.925-.441 2.376a3.958 3.958 0 01-.958 1.47 3.959 3.959 0 01-1.47.958c-.451.176-1.13.384-2.377.44-1.35.062-1.755.075-5.173.075s-3.823-.013-5.172-.074c-1.248-.058-1.925-.266-2.377-.441a3.965 3.965 0 01-1.472-.958 3.968 3.968 0 01-.958-1.471c-.175-.45-.384-1.128-.44-2.376-.062-1.35-.074-1.755-.074-5.173s.012-3.821.073-5.17c.058-1.249.266-1.926.441-2.377.232-.598.51-1.024.958-1.472a3.972 3.972 0 011.472-.958c.451-.176 1.129-.384 2.377-.441 1.18-.054 1.638-.07 4.024-.072v.003zm7.98 2.125a1.536 1.536 0 100 3.073 1.536 1.536 0 000-3.073zM17.429 24a6.574 6.574 0 1113.147 0 6.574 6.574 0 01-13.147 0z" fill="#000"/><path d="M24.001 19.733a4.267 4.267 0 110 8.534 4.267 4.267 0 010-8.534z" fill="#000"/></svg><svg fill="#354a03" viewBox="0 0 477.175 477.175" id="left" xmlns="http://www.w3.org/2000/svg"><path d="M145.188 238.575l215.5-215.5c5.3-5.3 5.3-13.8 0-19.1s-13.8-5.3-19.1 0l-225.1 225.1c-5.3 5.3-5.3 13.8 0 19.1l225.1 225c2.6 2.6 6.1 4 9.5 4s6.9-1.3 9.5-4c5.3-5.3 5.3-13.8 0-19.1l-215.4-215.5z"/></svg><svg fill="none" viewBox="0 0 48 48" id="linkedin" xmlns="http://www.w3.org/2000/svg"><path fill-rule="evenodd" clip-rule="evenodd" d="M24 0C10.745 0 0 10.745 0 24s10.745 24 24 24 24-10.745 24-24S37.255 0 24 0zM11.522 19.878h5.438V36.22h-5.438V19.878zm5.797-5.055C17.284 13.22 16.138 12 14.277 12c-1.86 0-3.077 1.22-3.077 2.823 0 1.569 1.18 2.824 3.006 2.824h.035c1.897 0 3.078-1.255 3.078-2.824zm12.994 4.671c3.58 0 6.262 2.336 6.262 7.356v9.37h-5.439v-8.743c0-2.196-.787-3.695-2.755-3.695-1.503 0-2.398 1.01-2.791 1.986-.144.35-.18.837-.18 1.325v9.127h-5.439s.072-14.808 0-16.342h5.44v2.315c.721-1.113 2.014-2.699 4.902-2.699z" fill="#000"/></svg><svg viewBox="0 0 512 512" fill="#354a03" id="reddit" xmlns="http://www.w3.org/2000/svg"><path d="M309.605 343.348c-11.468 11.468-36.042 15.562-53.554 15.562-17.563 0-42.086-4.094-53.555-15.562a6.887 6.887 0 00-9.777 0 6.887 6.887 0 000 9.777c18.176 18.176 53.094 19.61 63.332 19.61s45.105-1.434 63.336-19.61a6.987 6.987 0 000-9.777 6.892 6.892 0 00-9.782 0zm0 0M224 282.676C224 267.98 212.02 256 197.324 256c-14.691 0-26.676 11.98-26.676 26.676 0 14.691 11.985 26.676 26.676 26.676 14.696 0 26.676-11.98 26.676-26.676zm0 0"/><path d="M256 0C114.637 0 0 114.637 0 256s114.637 256 256 256 256-114.637 256-256S397.363 0 256 0zm148.531 290.148c.563 3.688.871 7.426.871 11.215 0 57.446-66.867 103.989-149.351 103.989s-149.352-46.543-149.352-103.989c0-3.84.309-7.629.871-11.316-13.004-5.836-22.066-18.89-22.066-34.047 0-20.582 16.691-37.324 37.324-37.324 10.035 0 19.098 3.941 25.805 10.394 25.906-18.687 61.75-30.62 101.633-31.644 0-.512 18.636-89.293 18.636-89.293a6.57 6.57 0 012.868-4.196c1.484-.972 3.277-1.28 5.02-.921l62.054 13.207c4.351-8.805 13.308-14.899 23.804-14.899 14.747 0 26.676 11.93 26.676 26.676s-11.93 26.676-26.676 26.676c-14.285 0-25.855-11.266-26.52-25.395l-55.554-11.828-16.996 80.027c39.168 1.38 74.344 13.258 99.84 31.692 6.707-6.5 15.82-10.496 25.906-10.496 20.637 0 37.324 16.691 37.324 37.324 0 15.258-9.164 28.312-22.117 34.148zm0 0"/><path d="M314.676 256C299.98 256 288 267.98 288 282.676c0 14.691 11.98 26.676 26.676 26.676 14.691 0 26.676-11.985 26.676-26.676 0-14.696-11.98-26.676-26.676-26.676zm0 0"/></svg><svg fill="#354a03" viewBox="0 0 477.175 477.175" id="right" xmlns="http://www.w3.org/2000/svg"><path d="M360.731 229.075l-225.1-225.1c-5.3-5.3-13.8-5.3-19.1 0s-5.3 13.8 0 19.1l215.5 215.5-215.5 215.5c-5.3 5.3-5.3 13.8 0 19.1 2.6 2.6 6.1 4 9.5 4 3.4 0 6.9-1.3 9.5-4l225.1-225.1c5.3-5.2 5.3-13.8.1-19z"/></svg><svg fill="none" viewBox="0 0 48 48" id="telegram" xmlns="http://www.w3.org/2000/svg"><path fill-rule="evenodd" clip-rule="evenodd" d="M0 24c0 13.255 10.745 24 24 24s24-10.745 24-24S37.255 0 24 0 0 10.745 0 24zm19.6 11l.408-6.118 11.129-10.043c.488-.433-.107-.645-.755-.252l-13.735 8.665-5.932-1.851c-1.281-.393-1.29-1.273.287-1.906l23.118-8.914c1.056-.48 2.075.254 1.672 1.87l-3.937 18.552c-.275 1.319-1.071 1.634-2.175 1.025l-5.997-4.431L20.8 34.4l-.027.026c-.322.314-.59.574-1.173.574z" fill="#000"/></svg><svg fill="none" viewBox="0 0 48 48" id="twitter" xmlns="http://www.w3.org/2000/svg"><path fill-rule="evenodd" clip-rule="evenodd" d="M24 0C10.745 0 0 10.745 0 24s10.745 24 24 24 24-10.745 24-24S37.255 0 24 0zm-.668 20.338l-.05-.83c-.152-2.153 1.174-4.119 3.273-4.881.772-.272 2.081-.306 2.938-.068.335.101.973.44 1.427.745l.822.56.907-.288c.503-.153 1.175-.407 1.477-.577.285-.152.537-.237.537-.186 0 .288-.621 1.271-1.141 1.813-.706.763-.504.83.923.322.856-.288.873-.288.705.034-.1.17-.621.763-1.175 1.305-.94.932-.99 1.034-.99 1.814 0 1.203-.571 3.711-1.142 5.084-1.058 2.576-3.324 5.237-5.59 6.576-3.19 1.881-7.437 2.356-11.013 1.254-1.192-.373-3.24-1.322-3.24-1.491 0-.051.621-.119 1.377-.136a9.452 9.452 0 004.499-1.254l.906-.542-1.04-.356c-1.478-.509-2.804-1.678-3.14-2.78-.1-.356-.067-.373.873-.373l.974-.017-.823-.39c-.974-.49-1.863-1.321-2.3-2.169-.319-.61-.722-2.152-.604-2.27.033-.052.386.05.789.186 1.158.423 1.31.322.638-.39-1.26-1.288-1.645-3.203-1.041-5.017l.285-.813 1.108 1.101c2.267 2.22 4.936 3.543 7.991 3.932l.84.102z" fill="#000"/></svg><svg viewBox="0 0 511.999 511.999" fill="#fff" id="up-arrow" xmlns="http://www.w3.org/2000/svg"><path d="M506.127 351.331l-207.701-207.27c-23.393-23.394-61.458-23.395-84.838-.015L5.872 351.33c-7.818 7.802-7.831 20.465-.029 28.284 7.802 7.818 20.465 7.832 28.284.029l207.731-207.299c7.798-7.797 20.486-7.798 28.299.015l207.716 207.285A19.935 19.935 0 00492 385.487c5.125 0 10.25-1.958 14.156-5.872 7.803-7.819 7.789-20.482-.029-28.284z"/></svg></svg>